<svg xmlns="http://www.w3.org/2000/svg" width="60" height="60" viewBox="0 0 60 60">
    <defs>
        <linearGradient id="a" x1="50%" x2="50%" y1="95.358%" y2="2.081%">
            <stop offset="0%" stop-color="#B41515"/>
            <stop offset="100%" stop-color="#D94646"/>
        </linearGradient>
    </defs>
    <g fill="none" fill-rule="evenodd">
        <rect width="60" height="60" fill="url(#a)" rx="30"/>
        <rect width="50" height="50" x="5" y="5" stroke="#FFF" stroke-width="2" opacity=".203" rx="25"/>
        <path fill="#FFF" d="M38 29h-3.712a.504.504 0 0 0-.354.146l-1.401 1.402a.5.5 0 0 1-.785-.101l-2.335-3.987a1 1 0 0 0-1.57-.201l-.499.498.008.014-2.083 2.083a.504.504 0 0 1-.354.146H22v-6a1 1 0 0 1 1-1h14a1 1 0 0 1 1 1v6zm0 8a1 1 0 0 1-1 1H23a1 1 0 0 1-1-1v-6h3.745c.133 0 .26-.053.354-.146l1.84-1.841a.5.5 0 0 1 .785.101c2.198 3.752 1.76 3.001 2.319 3.964a1 1 0 0 0 1.57.206l2.148-2.138a.495.495 0 0 1 .352-.146H38v6zm0-17H22a2 2 0 0 0-2 2v16a2 2 0 0 0 2 2h16a2 2 0 0 0 2-2V22a2 2 0 0 0-2-2z"/>
    </g>
</svg>
