<?xml version="1.0" encoding="UTF-8"?>
<svg width="20px" height="20px" viewBox="0 0 20 20" version="1.1" xmlns="http://www.w3.org/2000/svg" xmlns:xlink="http://www.w3.org/1999/xlink">
    <!-- Generator: Sketch 45.1 (43504) - http://www.bohemiancoding.com/sketch -->
    <title>Page 1</title>
    <desc>Created with Sketch.</desc>
    <defs></defs>
    <g id="Page-1" stroke="none" stroke-width="1" fill="none" fill-rule="evenodd">
        <g id="Patient-Detail-Page-Copy" transform="translate(-490.000000, -639.000000)">
            <g id="Patient-List" transform="translate(280.000000, 101.000000)">
                <g id="Client-1" transform="translate(0.000000, 109.000000)">
                    <g id="Page-1" transform="translate(208.000000, 427.000000)">
                        <polygon id="Stroke-1" stroke-opacity="0.00784313771" stroke="#000000" stroke-width="1.33333335e-11" points="0 0 23.9999985 0 23.9999985 23.9999985 0 23.9999985"></polygon>
                        <path d="M11.9999993,1.99999988 C6.47999962,1.99999988 1.99999988,6.47999962 1.99999988,11.9999993 C1.99999988,17.5199993 6.47999962,21.9999987 11.9999993,21.9999987 C17.5199993,21.9999987 21.9999987,17.5199993 21.9999987,11.9999993 C21.9999987,6.47999915 17.5199993,1.99999988 11.9999993,1.99999988 Z M11.9999993,4.9999997 C13.659999,4.9999997 14.9999991,6.33999977 14.9999991,7.99999952 C14.9999991,9.65999926 13.659999,10.9999993 11.9999993,10.9999993 C10.3399995,10.9999993 8.99999946,9.65999926 8.99999946,7.99999952 C8.99999946,6.33999977 10.3399995,4.9999997 11.9999993,4.9999997 Z M11.9999993,19.1999995 C9.49999943,19.1999995 7.28999952,17.9199989 5.99999964,15.9799994 C6.02999984,13.9899999 9.9999994,12.8999997 11.9999993,12.8999997 C13.9899989,12.8999997 17.9700001,13.9899999 17.9999989,15.9799994 C16.709998,17.9199989 14.4999991,19.1999995 11.9999993,19.1999995 Z" id="Fill-2" fill="#000000"></path>
                    </g>
                </g>
            </g>
        </g>
    </g>
</svg>